fd_4_states
version=1
nRows=19
nColumns=17
inDegrees=yes

# SIMM Motion File Header:
name fd_4_states
datacolumns 17
datarows 19
otherdata 1
range 0.480001 0.484520
endheader
time	/jointset/r_shoulder/r_shoulder_elev/value	/jointset/r_shoulder/r_shoulder_elev/speed	/jointset/r_elbow/r_elbow_flex/value	/jointset/r_elbow/r_elbow_flex/speed	/forceset/TRIlong/activation	/forceset/TRIlong/fiber_length	/forceset/TRIlat/activation	/forceset/TRIlat/fiber_length	/forceset/TRImed/activation	/forceset/TRImed/fiber_length	/forceset/BIClong/activation	/forceset/BIClong/fiber_length	/forceset/BICshort/activation	/forceset/BICshort/fiber_length	/forceset/BRA/activation	/forceset/BRA/fiber_length
      0.480001	      3.486988	    127.495190	    116.687147	    248.362422	      0.024892	      0.180586	      0.407522	      0.111466	      0.399301	      0.106577	      0.932379	      0.072072	      0.763134	      0.072064	      0.735740	      0.056804
      0.480017	      3.489035	    127.488102	    116.691135	    248.359325	      0.024891	      0.180587	      0.407421	      0.111467	      0.399203	      0.106579	      0.932436	      0.072067	      0.762745	      0.072060	      0.735381	      0.056802
      0.480053	      3.493578	    127.472053	    116.699985	    248.352935	      0.024889	      0.180588	      0.407223	      0.111471	      0.399011	      0.106583	      0.932563	      0.072058	      0.761658	      0.072050	      0.734361	      0.056798
      0.480231	      3.516283	    127.386199	    116.744233	    248.331148	      0.024877	      0.180602	      0.406237	      0.111492	      0.398057	      0.106603	      0.933193	      0.072011	      0.756265	      0.072005	      0.729295	      0.056778
      0.480476	      3.547465	    127.259098	    116.805050	    248.331742	      0.024861	      0.180637	      0.404892	      0.111519	      0.396756	      0.106629	      0.934048	      0.071945	      0.748959	      0.071944	      0.722428	      0.056751
      0.480800	      3.588759	    127.078289	    116.885693	    248.378014	      0.024840	      0.180748	      0.403127	      0.111554	      0.395047	      0.106663	      0.935165	      0.071859	      0.739457	      0.071866	      0.713494	      0.056716
      0.481125	      3.629996	    126.907725	    116.966363	    248.492504	      0.024819	      0.180755	      0.401382	      0.111588	      0.393357	      0.106696	      0.936261	      0.071773	      0.730160	      0.071791	      0.704747	      0.056683
      0.481387	      3.663174	    126.754275	    117.031381	    248.591715	      0.024802	      0.180784	      0.399990	      0.111616	      0.392009	      0.106723	      0.937131	      0.071704	      0.722815	      0.071732	      0.697832	      0.056656
      0.481681	      3.700464	    126.573983	    117.104584	    248.714891	      0.024783	      0.180882	      0.398439	      0.111646	      0.390507	      0.106753	      0.938094	      0.071627	      0.714699	      0.071668	      0.690188	      0.056628
      0.481976	      3.737703	    126.405386	    117.177828	    248.869471	      0.024764	      0.180890	      0.396903	      0.111676	      0.389019	      0.106782	      0.939042	      0.071550	      0.706738	      0.071606	      0.682685	      0.056599
      0.482222	      3.768820	    126.253472	    117.239143	    248.990922	      0.024748	      0.180918	      0.395631	      0.111701	      0.387786	      0.106806	      0.939823	      0.071485	      0.700193	      0.071555	      0.676514	      0.056576
      0.482526	      3.807183	    126.060901	    117.314881	    249.137498	      0.024729	      0.181019	      0.394074	      0.111732	      0.386278	      0.106836	      0.940774	      0.071406	      0.692254	      0.071493	      0.669025	      0.056548
      0.482830	      3.845490	    125.883248	    117.390667	    249.303227	      0.024710	      0.181027	      0.392534	      0.111762	      0.384786	      0.106866	      0.941708	      0.071326	      0.684467	      0.071433	      0.661676	      0.056520
      0.483077	      3.876560	    125.728968	    117.452251	    249.420336	      0.024694	      0.181055	      0.391294	      0.111787	      0.383584	      0.106890	      0.942456	      0.071262	      0.678252	      0.071385	      0.655807	      0.056497
      0.483377	      3.914273	    125.537810	    117.527142	    249.550040	      0.024675	      0.181156	      0.389802	      0.111817	      0.382138	      0.106919	      0.943351	      0.071184	      0.670826	      0.071328	      0.648792	      0.056470
      0.483677	      3.951931	    125.362672	    117.602073	    249.690212	      0.024656	      0.181163	      0.388325	      0.111847	      0.380706	      0.106948	      0.944232	      0.071106	      0.663538	      0.071271	      0.641903	      0.056443
      0.483923	      3.982669	    125.210311	    117.663345	    249.782238	      0.024641	      0.181191	      0.387129	      0.111871	      0.379546	      0.106972	      0.944941	      0.071042	      0.657680	      0.071226	      0.636363	      0.056421
      0.484221	      4.020033	    125.021923	    117.737951	    249.876451	      0.024623	      0.181291	      0.385686	      0.111900	      0.378147	      0.107001	      0.945792	      0.070965	      0.650667	      0.071171	      0.629729	      0.056394
      0.484520	      4.057342	    124.850205	    117.812587	    249.976480	      0.024604	      0.181298	      0.384257	      0.111930	      0.376762	      0.107030	      0.946628	      0.070888	      0.643779	      0.071118	      0.623211	      0.056368
